<?xml version="1.0" encoding="UTF-8" standalone="no"?>
<svg
   xmlns:dc="http://purl.org/dc/elements/1.1/"
   xmlns:cc="http://creativecommons.org/ns#"
   xmlns:rdf="http://www.w3.org/1999/02/22-rdf-syntax-ns#"
   xmlns:svg="http://www.w3.org/2000/svg"
   xmlns="http://www.w3.org/2000/svg"
   xmlns:sodipodi="http://sodipodi.sourceforge.net/DTD/sodipodi-0.dtd"
   xmlns:inkscape="http://www.inkscape.org/namespaces/inkscape"
   width="66.513763mm"
   height="66.514mm"
   viewBox="0 0 66.513763 66.514"
   version="1.1"
   id="svg8"
   inkscape:version="1.0.2 (e86c870879, 2021-01-15, custom)"
   sodipodi:docname="drawing.svg">
  <defs
     id="defs2">
    <rect
       x="17.386905"
       y="14.93006"
       width="170.37277"
       height="30.238096"
       id="rect1241" />
  </defs>
  <sodipodi:namedview
     id="base"
     pagecolor="#ffffff"
     bordercolor="#666666"
     borderopacity="1.0"
     inkscape:pageopacity="0.0"
     inkscape:pageshadow="2"
     inkscape:zoom="3.959798"
     inkscape:cx="113.48625"
     inkscape:cy="149.48054"
     inkscape:document-units="mm"
     inkscape:current-layer="layer4"
     inkscape:document-rotation="0"
     showgrid="false"
     inkscape:window-width="1920"
     inkscape:window-height="1017"
     inkscape:window-x="-8"
     inkscape:window-y="-8"
     inkscape:window-maximized="1" />
  <metadata
     id="metadata5">
    <rdf:RDF>
      <cc:Work
         rdf:about="">
        <dc:format>image/svg+xml</dc:format>
        <dc:type
           rdf:resource="http://purl.org/dc/dcmitype/StillImage" />
        <dc:title></dc:title>
      </cc:Work>
    </rdf:RDF>
  </metadata>
  <g
     inkscape:groupmode="layer"
     id="layer3"
     inkscape:label="Layer 2"
     style="display:inline">
    <path
       id="text1239"
       style="font-style:normal;font-weight:normal;font-size:14.1111px;line-height:0;font-family:sans-serif;white-space:pre;shape-inside:url(#rect1241);fill:#000000;fill-opacity:1;stroke:none;stroke-width:2.05494;stroke-miterlimit:4;stroke-dasharray:none"
       d="m 20.580656,16.778968 4.162536,15.815572 h 2.449463 l 4.035412,-12.19047 4.063836,12.19047 h 2.463416 l 4.12016,-15.815572 H 39.199674 L 36.452556,29.026801 32.40319,16.778968 H 30.208492 L 26.258345,29.026801 23.35568,16.778968 Z m 23.730334,0 4.162536,15.815572 h 2.449981 l 4.034896,-12.19047 4.063833,12.19047 h 2.463416 l 2.73575,-10.501684 c -0.114425,-0.234106 -0.236043,-0.465096 -0.335381,-0.7059 -0.0036,-0.0087 7.94e-4,-0.05415 0.0041,-0.09405 -0.0164,-0.04794 -0.02662,-0.0913 -0.03772,-0.135392 -0.12432,-0.123375 -0.156805,-0.208884 -0.163298,-0.345198 -0.03587,-0.04397 -0.07428,-0.08587 -0.109037,-0.130742 -0.03581,0.245817 -0.03525,0.578639 0.01757,1.037663 0.0083,0.07185 0.01328,0.144343 0.01963,0.216524 0.03171,0.08432 0.06461,0.168342 0.08992,0.254765 0.0076,0.0258 -0.05489,-0.02601 -0.06098,-0.05219 -0.01543,-0.06637 -0.02294,-0.134568 -0.02894,-0.202572 -0.15534,-0.41311 -0.36285,-0.809024 -0.424781,-1.25367 -0.04655,-0.229431 -0.098,-0.471751 -0.133326,-0.711584 -0.105,-0.132459 -0.204356,-0.255044 -0.281636,-0.337447 -0.04464,-0.0476 -0.116186,-0.231744 -0.07596,-0.180351 0.123849,0.15826 0.239424,0.323274 0.353467,0.489376 -0.01749,-0.123856 -0.03197,-0.246932 -0.03566,-0.366903 -0.0032,-0.104264 0.02283,0.213881 0.07648,0.303341 0.03645,0.06077 0.07937,0.117538 0.119888,0.1757 -0.08313,-0.35469 -0.141984,-0.607658 -0.166915,-0.815971 -0.0013,-5.83e-4 -0.0028,-9.79e-4 -0.0041,-0.0016 -0.214003,-0.09172 -0.411599,-0.18964 -0.60048,-0.290938 L 60.183405,29.026801 56.133523,16.778968 H 53.939341 L 49.988678,29.026801 47.086014,16.778968 Z m 18.737873,2.459282 c 0.06823,0.02911 0.138129,0.05475 0.207741,0.08113 -0.03432,-0.03721 -0.06456,-0.07734 -0.08372,-0.124024 -0.04319,-0.105284 -0.08523,-0.212361 -0.127124,-0.31936 -0.01252,0.115426 -0.01238,0.232814 0.0031,0.362252 z m -0.0031,-0.362252 c 0.0024,-0.0225 0.0089,-0.04683 0.01344,-0.07028 -0.118034,-0.219606 -0.187286,-0.425689 -0.212389,-0.612366 -0.01897,-0.03336 -0.03794,-0.06676 -0.05633,-0.100252 0.06705,0.265521 0.15491,0.526536 0.255279,0.782898 z m 0.250632,1.295528 c 0.08438,0.113986 0.171254,0.226087 0.256315,0.339514 l 0.03876,-0.06098 C 63.491236,20.3589 63.392922,20.265815 63.2964,20.171526 Z m 0.326593,0.307475 c -0.0092,0.02926 -0.02053,0.05413 -0.0279,0.08785 0.03258,0.04448 0.06127,0.09137 0.09198,0.136942 7.94e-4,-0.04084 0.0013,-0.07869 0.0031,-0.130225 0.0053,-0.03115 0.0042,-0.02713 0.0041,-0.02842 -0.02405,-0.02181 -0.04727,-0.04433 -0.07132,-0.06614 z m 0.08682,0.0801 c -5.29e-4,0.0055 -0.0011,0.01149 -5.29e-4,0.01499 0.0065,0.05338 0.0081,0.110574 0.0341,0.157613 5.29e-4,9.26e-4 0.0016,0.0027 0.0021,0.0036 -0.0052,-0.05253 -0.01024,-0.105084 -0.0155,-0.157613 -0.0068,-0.0062 -0.01336,-0.01245 -0.02016,-0.0186 z m 0.05064,0.04651 c 0.0056,0.01975 0.01032,0.03974 0.01601,0.05943 0.0054,0.01851 0.03473,0.05135 0.06511,0.08061 0.0024,-0.01263 0.0039,-0.02518 0.0067,-0.03824 -0.01535,-0.01983 -0.04751,-0.0571 -0.07597,-0.09043 -0.004,-0.0037 -0.0078,-0.0077 -0.01188,-0.01137 z m 0.101801,0.117822 c -5.29e-4,0.01336 -1.8e-4,0.02618 -5.29e-4,0.03876 0.04027,0.03465 0.06233,0.04289 5.29e-4,-0.03876 z" />
  </g>
  <g
     inkscape:groupmode="layer"
     id="layer4"
     inkscape:label="Layer 3"
     style="display:inline">
    <g
       id="path1248"
       style="display:inline;opacity:1">
      <path
         style="color:#000000;font-style:normal;font-variant:normal;font-weight:normal;font-stretch:normal;font-size:medium;line-height:normal;font-family:sans-serif;font-variant-ligatures:normal;font-variant-position:normal;font-variant-caps:normal;font-variant-numeric:normal;font-variant-alternates:normal;font-variant-east-asian:normal;font-feature-settings:normal;font-variation-settings:normal;text-indent:0;text-align:start;text-decoration:none;text-decoration-line:none;text-decoration-style:solid;text-decoration-color:#000000;letter-spacing:normal;word-spacing:normal;text-transform:none;writing-mode:lr-tb;direction:ltr;text-orientation:mixed;dominant-baseline:auto;baseline-shift:baseline;text-anchor:start;white-space:normal;shape-padding:0;shape-margin:0;inline-size:0;clip-rule:nonzero;display:inline;overflow:visible;visibility:visible;isolation:auto;mix-blend-mode:normal;color-interpolation:sRGB;color-interpolation-filters:linearRGB;solid-color:#000000;solid-opacity:1;vector-effect:none;fill:#ffffff;fill-opacity:1;fill-rule:nonzero;stroke:none;stroke-width:1.52071;stroke-linecap:butt;stroke-linejoin:miter;stroke-miterlimit:4;stroke-dasharray:none;stroke-dashoffset:0;stroke-opacity:1;color-rendering:auto;image-rendering:auto;shape-rendering:auto;text-rendering:auto;enable-background:accumulate;stop-color:#000000;stop-opacity:1"
         d="M 12.570135,43.215065 30.408387,20.64984 V 49.253649 L 28.178606,48.498826 25.948823,47.744003 23.719042,46.98918 21.489261,46.234358 19.25948,45.479535 17.029698,44.724712 14.799917,43.969888 Z"
         id="path1471" />
      <path
         style="color:#000000;font-style:normal;font-variant:normal;font-weight:normal;font-stretch:normal;font-size:medium;line-height:normal;font-family:sans-serif;font-variant-ligatures:normal;font-variant-position:normal;font-variant-caps:normal;font-variant-numeric:normal;font-variant-alternates:normal;font-variant-east-asian:normal;font-feature-settings:normal;font-variation-settings:normal;text-indent:0;text-align:start;text-decoration:none;text-decoration-line:none;text-decoration-style:solid;text-decoration-color:#000000;letter-spacing:normal;word-spacing:normal;text-transform:none;writing-mode:lr-tb;direction:ltr;text-orientation:mixed;dominant-baseline:auto;baseline-shift:baseline;text-anchor:start;white-space:normal;shape-padding:0;shape-margin:0;inline-size:0;clip-rule:nonzero;display:inline;overflow:visible;visibility:visible;isolation:auto;mix-blend-mode:normal;color-interpolation:sRGB;color-interpolation-filters:linearRGB;solid-color:#000000;solid-opacity:1;vector-effect:none;fill:#c8c8c8;fill-opacity:1;fill-rule:nonzero;stroke:none;stroke-linecap:butt;stroke-linejoin:miter;stroke-miterlimit:4;stroke-dasharray:none;stroke-dashoffset:0;stroke-opacity:1;color-rendering:auto;image-rendering:auto;shape-rendering:auto;text-rendering:auto;enable-background:accumulate;stop-color:#000000;stop-opacity:1"
         d="m 31.167969,18.462891 -19.863281,25.126953 1.021484,0.345703 2.230469,0.753906 2.228515,0.755859 c 3.161486,1.068787 5.853951,1.980538 8.919922,3.019532 l 2.230469,0.753906 3.232422,1.095703 z m -1.519531,4.373047 V 48.193359 L 28.421875,47.779297 26.193359,47.023438 C 23.148547,45.994353 19.808094,44.8628 17.273438,44.003906 L 15.042969,43.25 13.835938,42.839844 Z"
         id="path1473"
         sodipodi:nodetypes="ccccccccccccccccc" />
    </g>
  </g>
  <g
     inkscape:groupmode="layer"
     id="layer5"
     inkscape:label="Layer 4">
    <path
       style="display:inline;fill:#ffffff;fill-opacity:1;stroke:#c8c8c8;stroke-width:1.41864;stroke-linecap:butt;stroke-linejoin:miter;stroke-miterlimit:4;stroke-dasharray:none;stroke-opacity:1"
       d="m 19.548705,44.7548 -2.371775,6.992044 4.417191,1.573507 2.38108,-7.057321"
       id="path1250"
       sodipodi:nodetypes="cccc" />
  </g>
  <g
     inkscape:label="Layer 1"
     inkscape:groupmode="layer"
     id="layer1">
    <path
       id="path12"
       style="fill:#000000;fill-opacity:0;stroke:#808080;stroke-width:4.91338589;stroke-miterlimit:4;stroke-dasharray:none;stroke-opacity:1"
       transform="scale(0.26458333)"
       d="M 125.34766,2.4570312 A 123.2386,123.23905 0 0 0 2.4570312,125.69531 123.2386,123.23905 0 0 0 125.69531,248.93555 123.2386,123.23905 0 0 0 248.93359,125.69531 123.2386,123.23905 0 0 0 125.69531,2.4570312 a 123.2386,123.23905 0 0 0 -0.34765,0 z" />
  </g>
</svg>
