<?xml version="1.0" encoding="UTF-8" standalone="no"?>
<svg
   xmlns:dc="http://purl.org/dc/elements/1.1/"
   xmlns:cc="http://creativecommons.org/ns#"
   xmlns:rdf="http://www.w3.org/1999/02/22-rdf-syntax-ns#"
   xmlns:svg="http://www.w3.org/2000/svg"
   xmlns="http://www.w3.org/2000/svg"
   xmlns:sodipodi="http://sodipodi.sourceforge.net/DTD/sodipodi-0.dtd"
   xmlns:inkscape="http://www.inkscape.org/namespaces/inkscape"
   width="66.513763mm"
   height="66.514mm"
   viewBox="0 0 66.513763 66.514"
   version="1.1"
   id="svg8"
   inkscape:version="1.0.2 (e86c870879, 2021-01-15, custom)"
   sodipodi:docname="drawing.svg">
  <defs
     id="defs2" />
  <sodipodi:namedview
     id="base"
     pagecolor="#ffffff"
     bordercolor="#666666"
     borderopacity="1.0"
     inkscape:pageopacity="0.0"
     inkscape:pageshadow="2"
     inkscape:zoom="1.979899"
     inkscape:cx="85.153333"
     inkscape:cy="118.0395"
     inkscape:document-units="mm"
     inkscape:current-layer="layer2"
     inkscape:document-rotation="0"
     showgrid="false"
     inkscape:window-width="1920"
     inkscape:window-height="1017"
     inkscape:window-x="-8"
     inkscape:window-y="-8"
     inkscape:window-maximized="1" />
  <metadata
     id="metadata5">
    <rdf:RDF>
      <cc:Work
         rdf:about="">
        <dc:format>image/svg+xml</dc:format>
        <dc:type
           rdf:resource="http://purl.org/dc/dcmitype/StillImage" />
        <dc:title></dc:title>
      </cc:Work>
    </rdf:RDF>
  </metadata>
  <g
     inkscape:groupmode="layer"
     id="layer2"
     inkscape:label="Layer 2">
    <g
       id="rect838"
       style="opacity:1">
      <path
         id="path983"
         style="color:#000000;font-style:normal;font-variant:normal;font-weight:normal;font-stretch:normal;font-size:medium;line-height:normal;font-family:sans-serif;font-variant-ligatures:normal;font-variant-position:normal;font-variant-caps:normal;font-variant-numeric:normal;font-variant-alternates:normal;font-variant-east-asian:normal;font-feature-settings:normal;font-variation-settings:normal;text-indent:0;text-align:start;text-decoration:none;text-decoration-line:none;text-decoration-style:solid;text-decoration-color:#000000;letter-spacing:normal;word-spacing:normal;text-transform:none;writing-mode:lr-tb;direction:ltr;text-orientation:mixed;dominant-baseline:auto;baseline-shift:baseline;text-anchor:start;white-space:normal;shape-padding:0;shape-margin:0;inline-size:0;clip-rule:nonzero;display:inline;overflow:visible;visibility:visible;isolation:auto;mix-blend-mode:normal;color-interpolation:sRGB;color-interpolation-filters:linearRGB;solid-color:#000000;solid-opacity:1;vector-effect:none;fill:#000000;fill-opacity:0;fill-rule:nonzero;stroke:none;stroke-width:4.38773;stroke-linecap:butt;stroke-linejoin:miter;stroke-miterlimit:4;stroke-dasharray:none;stroke-dashoffset:0;stroke-opacity:1;color-rendering:auto;image-rendering:auto;shape-rendering:auto;text-rendering:auto;enable-background:accumulate;stop-color:#000000;stop-opacity:1"
         transform="scale(0.26458333)"
         d="m 99.625,74.023438 c -11.031553,-10e-7 -19.914062,8.880556 -19.914062,19.912109 v 66.056643 c 0,11.03155 8.882509,19.91406 19.914062,19.91406 h 137.58398 c 0.1896,-0.27151 0.40788,-0.53654 0.66016,-0.79102 0.0139,-0.10851 0.0252,-0.21747 0.0566,-0.32226 0.44062,-1.47137 0.50109,-1.44313 1.18164,-2.43164 0.56017,-0.63143 0.77135,-0.88148 1.00196,-1.15235 0.10534,-0.29474 0.11971,-0.4216 0.21874,-1.11523 0.46404,-3.24827 2.13391,-4.87308 3.78907,-5.05078 2.12806,-0.22848 4.23132,1.93651 3.71093,6.12305 -0.0761,0.61223 -0.18493,1.18725 -0.33007,1.74023 0.13374,0.26583 0.2394,0.54971 0.29492,0.85742 0.15764,-0.0388 0.31724,-0.0721 0.48633,-0.0781 0.15247,-0.005 0.30469,0.0109 0.45703,0.0176 0.59464,-0.34877 1.18586,-0.6963 1.8164,-0.99414 1.121,-0.52949 2.32119,-0.89664 3.51758,-1.20898 0.54302,-0.14512 1.08519,-0.2931 1.62891,-0.43555 0.6098,-0.15974 1.52773,-0.3689 2.10156,-0.57031 0.34046,-0.11947 0.66138,-0.28909 0.9961,-0.42383 0.54208,-0.21826 1.08586,-0.43407 1.63476,-0.63476 0.37502,-0.13711 0.75791,-0.25264 1.13672,-0.37891 0.88939,-0.29646 1.70495,-0.44293 2.4375,-0.46875 1.35909,-0.0479 2.42129,0.32785 3.14844,0.93555 0.8733,-0.45766 1.7492,-0.91152 2.58203,-1.43555 0.37402,-0.23329 0.75875,-0.4501 1.12109,-0.70117 0.32521,-0.22534 0.62059,-0.4897 0.9375,-0.72656 0.50141,-0.37475 1.00615,-0.74642 1.51758,-1.10743 0.19678,-0.34914 0.4278,-0.68279 0.64648,-1.01757 0.12186,-0.18652 0.3504,-0.68795 0.45313,-0.49024 0.0229,0.0442 0.0218,0.092 0.0293,0.13867 0.46414,-1.77737 1.32664,-3.20744 2.62695,-4.33984 -0.0136,-0.1047 -0.0311,-0.19808 -0.0391,-0.32617 -0.005,-0.1672 -0.0268,-0.6722 0,-0.80664 0.01,-0.0481 0.026,-0.0948 0.0371,-0.14258 v -0.002 c -0.26871,-0.8793 -0.31622,-1.81062 -0.29297,-2.73438 -0.0133,-1.15505 0.0238,-2.30536 0.082,-3.45898 0.0721,0.1192 0.24212,0.49443 0.2168,0.35742 -0.0556,-0.30064 -0.23957,-0.56591 -0.31055,-0.86328 -0.2211,-0.92674 -0.26688,-1.7924 -0.23438,-2.72852 -3.1e-4,-0.76164 -2.4e-4,-1.52352 0.002,-2.28515 -7.6e-4,-0.7527 -0.0177,-1.50533 0.006,-2.25782 0.004,-0.082 0.0105,-0.16379 0.0117,-0.24609 -0.0534,-0.50938 -0.14302,-1.01396 -0.0977,-1.5332 l 0.29492,-1.45899 c 0.006,-10e-4 0.0115,-0.002 0.0176,-0.004 0.0324,-0.0847 0.0651,-0.16921 0.0977,-0.25391 0.0397,-0.14868 0.0159,-0.31922 0.0918,-0.45313 0.0284,-0.0502 0.0702,0.21137 0.0781,0.1543 0.0233,-0.16739 -0.0198,-0.33714 -0.0293,-0.50586 0.0937,-0.76991 0.1015,-0.7952 0.13281,-1.02539 -0.006,-0.006 -0.02,-0.0163 -0.0254,-0.0215 -0.006,-0.006 -0.008,-0.006 -0.0137,-0.0117 v -0.002 c -1.52532,-1.45776 -1.27237,-1.17691 -1.86523,-2.7129 -0.0717,-0.47238 -0.16496,-0.94279 -0.21485,-1.41796 -0.0751,-0.71525 0.0829,-1.47355 0.002,-2.18946 -0.0532,-0.69509 -0.0295,-1.34441 0.16797,-2.01953 0.005,-0.0156 0.003,0.0326 0.004,0.0488 l 0.0156,0.31445 c 0.028,-0.27577 0.0231,-0.5551 0.0352,-0.83203 0.18536,-0.78735 0.24429,-1.07059 0.28125,-1.22461 5e-5,-0.14859 7.1e-4,-0.25748 0,-0.53711 -0.003,-0.66357 -0.0169,-1.32712 0.0156,-1.99023 0.003,-0.15182 -0.006,-0.30426 -0.008,-0.45703 -0.65653,-0.74345 -1.15269,-1.55722 -1.41211,-2.59375 -0.12357,-0.45799 -0.32557,-0.89419 -0.42773,-1.35743 -0.23785,-1.07818 -0.19468,-2.14793 -0.1875,-3.24023 0.015,-0.50396 -0.0106,-1.0109 0.0117,-1.51562 -0.0268,-0.0971 -0.062,-0.19279 -0.0742,-0.29297 -0.17834,-1.45853 -0.0407,-1.50922 0.33789,-2.75586 1.20767,-1.92817 0.45192,-0.99227 1.00391,-1.52344 0.0598,-0.0575 0.12811,-0.10742 0.17773,-0.17383 0.56587,-0.75708 1.06053,-1.59916 1.84961,-2.1582 0.11645,-0.0952 0.16031,-0.13418 0.24219,-0.20313 0.003,-0.0527 0.006,-0.10935 0.01,-0.16211 -5e-4,-0.007 -0.002,-0.0158 -0.002,-0.0234 -0.0109,-0.0268 -0.0231,-0.0448 -0.0332,-0.0742 -0.14866,-0.0918 -0.29826,-0.1827 -0.44336,-0.2793 -0.78271,-0.95997 -0.95463,-1.20948 -1.46094,-2.30859 -0.011,-0.0118 -0.0222,-0.0233 -0.0332,-0.0352 -0.12964,0.56197 -0.62104,-0.84837 -0.89453,-1.83203 -0.0889,-0.1556 -0.17423,-0.31199 -0.24024,-0.47852 -0.24828,-0.62637 -0.19922,-1.6981 -0.19922,-2.38476 h -0.002 c 0,-3.75 1.89503,-5.625 3.78906,-5.625 0.16415,0 0.32734,0.0324 0.49024,0.0606 0.016,-0.48299 0.0402,-1.17361 0.1289,-1.488286 0.004,-0.10164 0.0427,0.131336 -0.22656,-1.361328 -0.40112,-2.352143 -0.7787,-4.707501 -1.18555,-7.058594 -0.1439,-0.959583 -0.27969,-1.914702 -0.375,-2.876953 -0.43019,0.562323 -0.83944,1.141682 -1.28515,1.691407 -0.2063,0.254441 -0.43446,0.48781 -0.65235,0.732422 -0.13468,0.119378 -0.26963,0.239996 -0.40429,0.359374 -1.87064,1.658503 -3.62214,-0.404582 -1.63672,-1.923828 0.0554,-0.04237 0.11061,-0.08458 0.16601,-0.126953 0.77759,-0.846429 1.41405,-1.796553 2.13477,-2.693359 0.39338,-0.489486 0.79938,-0.969491 1.20312,-1.451172 -0.31257,-0.09701 -0.61434,-0.190713 -0.91796,-0.285156 -0.55471,-0.03971 -1.14525,-0.134049 -1.78516,-0.314453 -0.34471,0.09839 -0.37242,0.461135 0.21289,1.349609 0.0619,0.09087 0.11902,0.185184 0.18164,0.275391 0.0519,0.07472 -0.10166,-0.15101 -0.15234,-0.226563 -0.013,-0.01941 -0.0168,-0.02989 -0.0293,-0.04883 -0.33576,-0.493098 -0.64291,-1.003675 -0.9082,-1.537109 -0.002,-5.82e-4 -0.004,-0.0014 -0.006,-0.002 -2.57724,2.675183 -5.83058,1.569462 -6.08399,-1.736329 -0.69519,-0.199305 -1.39346,-0.386235 -2.08398,-0.601562 -0.94879,-0.310443 -1.90312,-0.600869 -2.8457,-0.929688 -1.14727,-0.400218 -3.79928,-1.496862 -4.66993,-1.875 -1.87608,-0.814818 -1.74101,-0.851767 -2.93945,-1.371093 -0.31971,0.003 -0.63928,-0.0049 -0.95898,0.002 -0.46307,0.01943 -0.92826,0.02647 -1.39063,0.05859 -0.3907,0.02702 -0.77668,0.102889 -1.16797,0.119141 -1.44283,0.06034 -2.88026,-0.06342 -4.29297,-0.332031 0.72603,1.018568 0.60485,1.693879 -1.65039,1.49414 L 242.55469,78.9375 c -0.26884,-0.111723 -0.54041,-0.21813 -0.80664,-0.335938 -0.0353,-0.01561 -0.13621,-0.0654 -0.0977,-0.06445 0.15447,0.0038 0.60216,0.132308 0.45899,0.07422 -0.47306,-0.191985 -1.03434,-0.189382 -1.45508,-0.478516 -1.55008,-1.065268 -1.5381,-1.193572 -2.05664,-2.283203 -0.10674,-0.286227 -0.22949,-0.567708 -0.32032,-0.859375 -0.0997,-0.320133 -0.16576,-0.643182 -0.21679,-0.966796 z M 274.19141,109.6875 c 0.17803,0.31178 0.38076,0.61164 0.57031,0.91797 -0.20036,-0.58015 -0.40625,-1.15998 -0.69531,-1.69922 -0.14145,-0.26386 -0.0361,0.20176 0.125,0.78125 z m 0.57031,0.91797 c 0.10546,0.30537 0.20709,0.61212 0.32422,0.91211 0.0136,-0.0594 0.0232,-0.14095 0.0273,-0.24805 -0.0937,-0.23277 -0.21905,-0.44991 -0.35156,-0.66406 z m 2.26172,3.53711 c 0.0117,0.007 0.0238,0.0143 0.0351,0.0215 -0.007,-0.0298 -0.0189,-0.058 -0.0254,-0.0879 -0.0204,-0.0235 -0.0389,-0.0484 -0.0586,-0.0723 0.0146,0.0535 0.032,0.0897 0.0488,0.13867 z m -0.0488,-0.13867 c -0.12215,-0.44815 -0.16772,-1.00043 -0.10547,-0.72461 0.0595,0.26382 0.10659,0.53205 0.16406,0.79687 0.009,0.0105 0.0181,0.0208 0.0273,0.0312 0.002,-0.17117 0.008,-0.24571 0.0254,-0.39844 -0.17329,-0.53217 -0.36381,-1.05688 -0.62696,-1.54882 -0.22445,-0.41958 0.0398,0.97418 0.23047,1.41015 0.07,0.15995 0.17364,0.29869 0.28516,0.4336 z m 0.11133,-0.29493 c 0.003,0.0104 0.006,0.0209 0.01,0.0312 0.008,-0.0953 0.0133,-0.18388 0.0215,-0.2832 0.009,-0.10493 -0.0148,0.11057 -0.0312,0.25195 z m 0.01,0.0312 c -0.0102,0.12624 -0.0209,0.25278 -0.0293,0.375 0.0347,0.0391 0.066,0.0805 0.10156,0.11915 0.0156,0.01 0.0312,0.0195 0.0469,0.0293 0.0101,-0.009 0.0318,-0.0254 0.041,-0.0332 -0.0516,-0.16424 -0.10712,-0.32666 -0.16016,-0.49024 z m 0.11914,0.52344 c -0.003,0.002 -0.009,0.007 -0.0117,0.01 0.0374,0.0406 0.0704,0.084 0.10743,0.125 -0.01,-0.0313 -0.0195,-0.0625 -0.0293,-0.0937 -0.022,-0.0139 -0.0443,-0.0272 -0.0664,-0.041 z m 0.0957,0.13477 v 0.002 c -0.0165,0.0322 -0.039,0.0869 -0.0605,0.12891 0.0512,0.0541 0.10021,0.11039 0.15625,0.16015 -0.0156,-0.0482 -0.0315,-0.0962 -0.0469,-0.14453 -0.0312,-0.0334 -0.0476,-0.0584 -0.0176,-0.0527 -0.01,-0.0306 -0.0196,-0.0611 -0.0293,-0.0918 0.0385,0.0427 0.0745,0.087 0.11133,0.13086 0.24794,0.088 0.68189,0.37338 0.52539,0.24414 -0.19301,-0.15938 -0.40185,-0.29707 -0.61328,-0.43164 -0.006,0.0118 -0.0184,0.0411 -0.0254,0.0547 z m -0.10743,-0.125 c -0.0119,-0.0129 -0.0233,-0.0261 -0.0351,-0.0391 -0.0353,-0.0219 -0.0701,-0.0446 -0.10547,-0.0664 -2.1e-4,0.003 2.1e-4,0.007 0,0.01 0.0104,0.0455 0.0259,0.0895 0.0371,0.13477 0.003,0.005 0.005,0.0125 0.008,0.0176 0.006,-0.003 0.009,0.005 0.0156,-0.004 0.002,0.003 0.004,0.006 0.006,0.01 0.0219,-0.0185 0.0552,-0.0465 0.0742,-0.0625 z m -0.10351,0.0391 c -0.0144,-0.0274 -0.0278,-0.0575 -0.041,-0.0898 -3.6e-4,0.006 3.6e-4,0.0119 0,0.0176 0.005,0.0735 0.0212,0.10352 0.0469,0.0898 -0.002,-0.006 -0.004,-0.0116 -0.006,-0.0176 z m -0.0371,-0.14453 c 10e-4,-0.0171 0.003,-0.0356 0.004,-0.0527 -0.002,-0.002 -0.004,-0.005 -0.006,-0.008 -2.5e-4,0.0182 -0.002,0.04 -0.002,0.0566 v 0.002 c 0.001,7.6e-4 0.003,5.5e-4 0.004,0.002 z m -0.0293,0.83984 c -0.0617,0.17425 -0.0202,0.37385 0.002,0.5586 0.0144,0.1209 -0.004,-0.2435 -0.006,-0.36524 -7.8e-4,-0.0675 0.003,-0.12771 0.004,-0.19336 z m -3.36328,7.02735 c 0.0188,0.063 0.0362,0.127 0.0566,0.18945 0.008,0.0254 0.0408,0.098 0.0332,0.0723 -0.0253,-0.0883 -0.0591,-0.17463 -0.0899,-0.26172 z m 2.89258,19.97851 c 0.0468,0.37642 0.15381,0.73414 0.4375,1.04492 0.0317,0.0347 0.0726,0.0599 0.10938,0.0898 0.006,-0.0332 0.006,-0.0356 0.0137,-0.0742 -0.16838,-0.32583 -0.33214,-0.63804 -0.56055,-1.06055 z m 0.65039,0.63086 c 5.8e-4,-0.004 -0.0307,0.14284 -0.0391,0.19336 0.005,0.006 0.007,0.01 0.0117,0.0156 0.002,-0.015 0.0271,-0.20734 0.0273,-0.20899 z m -0.0879,0.43555 c -0.006,0.0315 -0.007,0.0373 -0.0137,0.0703 0.0112,0.009 0.0216,0.0186 0.0332,0.0273 0.001,-0.01 0.005,-0.0422 0.006,-0.0508 -0.007,-0.0143 -0.0179,-0.0324 -0.0254,-0.0469 z m -0.56836,5.3418 c -7.6e-4,0.0239 -0.002,0.0352 -0.002,0.0527 0,0.0136 0.0129,0.0527 0.0117,0.0391 -0.003,-0.0308 -0.007,-0.0611 -0.01,-0.0918 z m 0.875,12.58203 c -0.0482,0.028 -0.32528,1.02986 -0.3457,1.49609 0.11512,-0.46807 0.27802,-0.92536 0.3457,-1.40234 0.01,-0.07 0.009,-0.099 0,-0.0937 z m -0.34961,1.59961 c 0.005,0.0759 0.0194,0.13003 0.0527,0.13867 0.0936,0.22834 0.39241,0.90487 0.27929,0.68554 -0.13786,-0.26724 -0.2443,-0.5443 -0.33203,-0.82421 z m -36.99219,12.6621 c -0.17484,0.25041 -0.30638,0.48608 -0.22265,0.54688 0.0872,0.0633 0.0945,-0.19499 0.13476,-0.29492 0.057,-0.14182 0.056,-0.16668 0.0879,-0.25196 z m 9.16016,2.43555 c -0.0218,0.004 -0.0478,0.0151 -0.0703,0.0195 0.33648,0.0271 0.67466,0.0595 1.01172,0.0645 0.31476,0.005 -0.63077,-0.13484 -0.94141,-0.084 z" />
      <path
         id="path985"
         style="color:#000000;font-style:normal;font-variant:normal;font-weight:normal;font-stretch:normal;font-size:medium;line-height:normal;font-family:sans-serif;font-variant-ligatures:normal;font-variant-position:normal;font-variant-caps:normal;font-variant-numeric:normal;font-variant-alternates:normal;font-variant-east-asian:normal;font-feature-settings:normal;font-variation-settings:normal;text-indent:0;text-align:start;text-decoration:none;text-decoration-line:none;text-decoration-style:solid;text-decoration-color:#000000;letter-spacing:normal;word-spacing:normal;text-transform:none;writing-mode:lr-tb;direction:ltr;text-orientation:mixed;dominant-baseline:auto;baseline-shift:baseline;text-anchor:start;white-space:normal;shape-padding:0;shape-margin:0;inline-size:0;clip-rule:nonzero;display:inline;overflow:visible;visibility:visible;isolation:auto;mix-blend-mode:normal;color-interpolation:sRGB;color-interpolation-filters:linearRGB;solid-color:#000000;solid-opacity:1;vector-effect:none;fill:#c8c8c8;fill-opacity:1;fill-rule:nonzero;stroke:none;stroke-width:3.77953;stroke-linecap:butt;stroke-linejoin:miter;stroke-miterlimit:4;stroke-dasharray:none;stroke-dashoffset:0;stroke-opacity:1;color-rendering:auto;image-rendering:auto;shape-rendering:auto;text-rendering:auto;enable-background:accumulate;stop-color:#000000;stop-opacity:1"
         transform="scale(0.26458333)"
         d="m 99.626953,71.826172 c -12.209008,0 -22.109375,9.898414 -22.109375,22.107422 v 66.060546 c 0,12.20901 9.900367,22.10156 22.109375,22.10156 H 236.43945 c 0.0474,-0.33533 0.14059,-0.73783 0.30664,-1.29882 0.17527,-0.59214 0.60187,-1.15594 1.12305,-1.68165 0.0139,-0.10851 0.0252,-0.21747 0.0566,-0.32226 0.15552,-0.51934 0.2624,-0.82569 0.36719,-1.08203 H 99.626953 c -9.854101,0 -17.724609,-7.8627 -17.724609,-17.7168 V 93.933594 c 0,-9.854102 7.870508,-17.714844 17.724609,-17.714844 H 238.77539 c -0.057,-0.119032 -0.10595,-0.218299 -0.17773,-0.369141 -0.10674,-0.286227 -0.22949,-0.567708 -0.32032,-0.859375 -0.32477,-1.042949 -0.37116,-2.110193 -0.24218,-3.164062 z M 247.7832,177.71094 c 0.005,0.0233 0.008,0.0468 0.0117,0.0703 0.11043,-0.0271 0.21991,-0.0589 0.33594,-0.0703 z m 1.43164,0 c -0.012,0.004 -0.0239,0.008 -0.0352,0.01 0.33648,0.0271 0.67466,0.0595 1.01172,0.0645 0.25416,0.004 -0.27841,-0.0661 -0.66993,-0.0742 z m -11.43359,3.14258 c -0.12848,0.15314 -0.26303,0.31815 -0.41406,0.52148 -0.37302,0.50216 -0.008,0.0267 -0.28321,0.7207 h 0.14063 c 0.1513,-0.31368 0.34321,-0.7459 0.55664,-1.24218 z" />
    </g>
    <rect
       style="fill:#000000;fill-opacity:0;stroke:#969696;stroke-width:1.3;stroke-miterlimit:4;stroke-dasharray:none;stroke-opacity:1"
       id="rect1234"
       width="0.13363476"
       height="15.768902"
       x="29.132378"
       y="25.925144" />
  </g>
  <g
     inkscape:label="Layer 1"
     inkscape:groupmode="layer"
     id="layer1">
    <path
       id="path12"
       style="fill:#000000;fill-opacity:0;stroke:#808080;stroke-width:4.91339;stroke-miterlimit:4;stroke-dasharray:none;stroke-opacity:1"
       transform="scale(0.26458333)"
       d="M 125.34766,2.4570312 A 123.2386,123.23905 0 0 0 2.4570312,125.69531 123.2386,123.23905 0 0 0 125.69531,248.93555 123.2386,123.23905 0 0 0 248.93359,125.69531 123.2386,123.23905 0 0 0 125.69531,2.4570312 a 123.2386,123.23905 0 0 0 -0.34765,0 z" />
  </g>
</svg>
